<?xml version="1.0" standalone="no"?><!DOCTYPE svg PUBLIC "-//W3C//DTD SVG 1.1//EN" "http://www.w3.org/Graphics/SVG/1.1/DTD/svg11.dtd"><svg t="1526113273840" class="icon" style="" viewBox="0 0 1024 1024" version="1.1" xmlns="http://www.w3.org/2000/svg" p-id="10346" xmlns:xlink="http://www.w3.org/1999/xlink" width="200" height="200"><defs><style type="text/css"></style></defs><path d="M675.322 92.55H262.561c-56.959 0-103.189 46.186-103.189 103.146v619.131c0 56.959 46.23 103.144 103.189 103.144h515.954c56.947 0 103.176-46.185 103.176-103.144v-515.94L675.322 92.55z m154.779 722.276c0 28.46-23.129 51.603-51.586 51.603H262.561c-28.5 0-51.585-23.143-51.585-51.603V195.695c0-28.503 23.085-51.586 51.585-51.586h334.606c-0.431 61.804 0.751 154.778 0.751 154.778 0 57.006 46.199 77.388 103.193 77.388H830.1v438.551z m-128.99-490.138c-28.504 0-51.59-23.099-51.59-51.602V144.109L830.1 324.684H701.111v0.004zM675.326 531.07H365.744c-14.218 0-25.775 11.516-25.775 25.771 0 14.261 11.558 25.816 25.775 25.816h309.582c14.218 0 25.759-11.556 25.759-25.816 0-14.255-11.541-25.771-25.759-25.771z m0 128.978H365.744c-14.218 0-25.775 11.516-25.775 25.775 0 14.256 11.558 25.814 25.775 25.814h309.582c14.218 0 25.759-11.559 25.759-25.814 0-14.26-11.541-25.775-25.759-25.775z m0 0" p-id="10347"></path></svg>